<svg xmlns="http://www.w3.org/2000/svg" viewBox="0 0 1400 900" preserveAspectRatio="none">
<defs>
  <linearGradient id="thread" x1="0" y1="0" x2="0" y2="1"><stop stop-color="#ffffff"/><stop offset=".5" stop-color="#f5eee3"/><stop offset="1" stop-color="#d7cec0"/></linearGradient>
  <filter id="shadow"><feDropShadow dx="0" dy="1" stdDeviation=".8" flood-color="#120b07" flood-opacity=".7"/></filter>
  <g id="stitchH"><ellipse cx="0" cy="0" rx="5.2" ry="3.4" fill="#160f0b"/><path d="M2 -1.5 C8 -4 18 -4 25 -1.2" fill="none" stroke="url(#thread)" stroke-width="7" stroke-linecap="round" filter="url(#shadow)"/></g>
  <g id="stitchV"><ellipse cx="0" cy="0" rx="3.4" ry="5.2" fill="#160f0b"/><path d="M-1.5 2 C-4 8 -4 18 -1.2 25" fill="none" stroke="url(#thread)" stroke-width="7" stroke-linecap="round" filter="url(#shadow)"/></g>
</defs>
<!-- top: dark holes with short, softly curved white thread -->
<g transform="translate(42 44)"><use href="#stitchH"/></g><g transform="translate(76 44)"><use href="#stitchH"/></g><g transform="translate(110 44)"><use href="#stitchH"/></g><g transform="translate(144 44)"><use href="#stitchH"/></g><g transform="translate(178 44)"><use href="#stitchH"/></g><g transform="translate(212 44)"><use href="#stitchH"/></g><g transform="translate(246 44)"><use href="#stitchH"/></g><g transform="translate(280 44)"><use href="#stitchH"/></g><g transform="translate(314 44)"><use href="#stitchH"/></g><g transform="translate(348 44)"><use href="#stitchH"/></g><g transform="translate(382 44)"><use href="#stitchH"/></g><g transform="translate(416 44)"><use href="#stitchH"/></g><g transform="translate(450 44)"><use href="#stitchH"/></g><g transform="translate(484 44)"><use href="#stitchH"/></g><g transform="translate(518 44)"><use href="#stitchH"/></g><g transform="translate(552 44)"><use href="#stitchH"/></g><g transform="translate(586 44)"><use href="#stitchH"/></g><g transform="translate(620 44)"><use href="#stitchH"/></g><g transform="translate(654 44)"><use href="#stitchH"/></g><g transform="translate(688 44)"><use href="#stitchH"/></g><g transform="translate(722 44)"><use href="#stitchH"/></g><g transform="translate(756 44)"><use href="#stitchH"/></g><g transform="translate(790 44)"><use href="#stitchH"/></g><g transform="translate(824 44)"><use href="#stitchH"/></g><g transform="translate(858 44)"><use href="#stitchH"/></g><g transform="translate(892 44)"><use href="#stitchH"/></g><g transform="translate(926 44)"><use href="#stitchH"/></g><g transform="translate(960 44)"><use href="#stitchH"/></g><g transform="translate(994 44)"><use href="#stitchH"/></g><g transform="translate(1028 44)"><use href="#stitchH"/></g><g transform="translate(1062 44)"><use href="#stitchH"/></g><g transform="translate(1096 44)"><use href="#stitchH"/></g><g transform="translate(1130 44)"><use href="#stitchH"/></g><g transform="translate(1164 44)"><use href="#stitchH"/></g><g transform="translate(1198 44)"><use href="#stitchH"/></g><g transform="translate(1232 44)"><use href="#stitchH"/></g><g transform="translate(1266 44)"><use href="#stitchH"/></g><g transform="translate(1300 44)"><use href="#stitchH"/></g><g transform="translate(1334 44)"><use href="#stitchH"/></g>
<!-- bottom -->
<g transform="translate(42 856) scale(1 -1)"><use href="#stitchH"/></g><g transform="translate(76 856) scale(1 -1)"><use href="#stitchH"/></g><g transform="translate(110 856) scale(1 -1)"><use href="#stitchH"/></g><g transform="translate(144 856) scale(1 -1)"><use href="#stitchH"/></g><g transform="translate(178 856) scale(1 -1)"><use href="#stitchH"/></g><g transform="translate(212 856) scale(1 -1)"><use href="#stitchH"/></g><g transform="translate(246 856) scale(1 -1)"><use href="#stitchH"/></g><g transform="translate(280 856) scale(1 -1)"><use href="#stitchH"/></g><g transform="translate(314 856) scale(1 -1)"><use href="#stitchH"/></g><g transform="translate(348 856) scale(1 -1)"><use href="#stitchH"/></g><g transform="translate(382 856) scale(1 -1)"><use href="#stitchH"/></g><g transform="translate(416 856) scale(1 -1)"><use href="#stitchH"/></g><g transform="translate(450 856) scale(1 -1)"><use href="#stitchH"/></g><g transform="translate(484 856) scale(1 -1)"><use href="#stitchH"/></g><g transform="translate(518 856) scale(1 -1)"><use href="#stitchH"/></g><g transform="translate(552 856) scale(1 -1)"><use href="#stitchH"/></g><g transform="translate(586 856) scale(1 -1)"><use href="#stitchH"/></g><g transform="translate(620 856) scale(1 -1)"><use href="#stitchH"/></g><g transform="translate(654 856) scale(1 -1)"><use href="#stitchH"/></g><g transform="translate(688 856) scale(1 -1)"><use href="#stitchH"/></g><g transform="translate(722 856) scale(1 -1)"><use href="#stitchH"/></g><g transform="translate(756 856) scale(1 -1)"><use href="#stitchH"/></g><g transform="translate(790 856) scale(1 -1)"><use href="#stitchH"/></g><g transform="translate(824 856) scale(1 -1)"><use href="#stitchH"/></g><g transform="translate(858 856) scale(1 -1)"><use href="#stitchH"/></g><g transform="translate(892 856) scale(1 -1)"><use href="#stitchH"/></g><g transform="translate(926 856) scale(1 -1)"><use href="#stitchH"/></g><g transform="translate(960 856) scale(1 -1)"><use href="#stitchH"/></g><g transform="translate(994 856) scale(1 -1)"><use href="#stitchH"/></g><g transform="translate(1028 856) scale(1 -1)"><use href="#stitchH"/></g><g transform="translate(1062 856) scale(1 -1)"><use href="#stitchH"/></g><g transform="translate(1096 856) scale(1 -1)"><use href="#stitchH"/></g><g transform="translate(1130 856) scale(1 -1)"><use href="#stitchH"/></g><g transform="translate(1164 856) scale(1 -1)"><use href="#stitchH"/></g><g transform="translate(1198 856) scale(1 -1)"><use href="#stitchH"/></g><g transform="translate(1232 856) scale(1 -1)"><use href="#stitchH"/></g><g transform="translate(1266 856) scale(1 -1)"><use href="#stitchH"/></g><g transform="translate(1300 856) scale(1 -1)"><use href="#stitchH"/></g><g transform="translate(1334 856) scale(1 -1)"><use href="#stitchH"/></g>
<!-- left and right: rotated vertical saddle stitches -->
<g transform="translate(44 42) rotate(90)"><use href="#stitchV"/></g><g transform="translate(44 76) rotate(90)"><use href="#stitchV"/></g><g transform="translate(44 110) rotate(90)"><use href="#stitchV"/></g><g transform="translate(44 144) rotate(90)"><use href="#stitchV"/></g><g transform="translate(44 178) rotate(90)"><use href="#stitchV"/></g><g transform="translate(44 212) rotate(90)"><use href="#stitchV"/></g><g transform="translate(44 246) rotate(90)"><use href="#stitchV"/></g><g transform="translate(44 280) rotate(90)"><use href="#stitchV"/></g><g transform="translate(44 314) rotate(90)"><use href="#stitchV"/></g><g transform="translate(44 348) rotate(90)"><use href="#stitchV"/></g><g transform="translate(44 382) rotate(90)"><use href="#stitchV"/></g><g transform="translate(44 416) rotate(90)"><use href="#stitchV"/></g><g transform="translate(44 450) rotate(90)"><use href="#stitchV"/></g><g transform="translate(44 484) rotate(90)"><use href="#stitchV"/></g><g transform="translate(44 518) rotate(90)"><use href="#stitchV"/></g><g transform="translate(44 552) rotate(90)"><use href="#stitchV"/></g><g transform="translate(44 586) rotate(90)"><use href="#stitchV"/></g><g transform="translate(44 620) rotate(90)"><use href="#stitchV"/></g><g transform="translate(44 654) rotate(90)"><use href="#stitchV"/></g><g transform="translate(44 688) rotate(90)"><use href="#stitchV"/></g><g transform="translate(44 722) rotate(90)"><use href="#stitchV"/></g><g transform="translate(44 756) rotate(90)"><use href="#stitchV"/></g><g transform="translate(44 790) rotate(90)"><use href="#stitchV"/></g><g transform="translate(44 824) rotate(90)"><use href="#stitchV"/></g><g transform="translate(1356 42) rotate(90) scale(1 -1)"><use href="#stitchV"/></g><g transform="translate(1356 76) rotate(90) scale(1 -1)"><use href="#stitchV"/></g><g transform="translate(1356 110) rotate(90) scale(1 -1)"><use href="#stitchV"/></g><g transform="translate(1356 144) rotate(90) scale(1 -1)"><use href="#stitchV"/></g><g transform="translate(1356 178) rotate(90) scale(1 -1)"><use href="#stitchV"/></g><g transform="translate(1356 212) rotate(90) scale(1 -1)"><use href="#stitchV"/></g><g transform="translate(1356 246) rotate(90) scale(1 -1)"><use href="#stitchV"/></g><g transform="translate(1356 280) rotate(90) scale(1 -1)"><use href="#stitchV"/></g><g transform="translate(1356 314) rotate(90) scale(1 -1)"><use href="#stitchV"/></g><g transform="translate(1356 348) rotate(90) scale(1 -1)"><use href="#stitchV"/></g><g transform="translate(1356 382) rotate(90) scale(1 -1)"><use href="#stitchV"/></g><g transform="translate(1356 416) rotate(90) scale(1 -1)"><use href="#stitchV"/></g><g transform="translate(1356 450) rotate(90) scale(1 -1)"><use href="#stitchV"/></g><g transform="translate(1356 484) rotate(90) scale(1 -1)"><use href="#stitchV"/></g><g transform="translate(1356 518) rotate(90) scale(1 -1)"><use href="#stitchV"/></g><g transform="translate(1356 552) rotate(90) scale(1 -1)"><use href="#stitchV"/></g><g transform="translate(1356 586) rotate(90) scale(1 -1)"><use href="#stitchV"/></g><g transform="translate(1356 620) rotate(90) scale(1 -1)"><use href="#stitchV"/></g><g transform="translate(1356 654) rotate(90) scale(1 -1)"><use href="#stitchV"/></g><g transform="translate(1356 688) rotate(90) scale(1 -1)"><use href="#stitchV"/></g><g transform="translate(1356 722) rotate(90) scale(1 -1)"><use href="#stitchV"/></g><g transform="translate(1356 756) rotate(90) scale(1 -1)"><use href="#stitchV"/></g><g transform="translate(1356 790) rotate(90) scale(1 -1)"><use href="#stitchV"/></g><g transform="translate(1356 824) rotate(90) scale(1 -1)"><use href="#stitchV"/></g>
</svg>